<svg xmlns="http://www.w3.org/2000/svg" width="30" height="30" viewBox="0 0 30 30">
  <g id="instagram" transform="translate(108.514 108.514)">
    <path id="Path_6" data-name="Path 6" d="M219.2,213.1a6.1,6.1,0,1,1-6.1-6.1A6.1,6.1,0,0,1,219.2,213.1Zm0,0" transform="translate(-306.613 -306.613)" fill="#6a6a6a"/>
    <path id="Path_7" data-name="Path 7" d="M164.748,139.7a6.059,6.059,0,0,0-3.472-3.472,10.123,10.123,0,0,0-3.4-.63c-1.93-.088-2.508-.107-7.394-.107s-5.464.018-7.394.106a10.129,10.129,0,0,0-3.4.63,6.062,6.062,0,0,0-3.473,3.472,10.127,10.127,0,0,0-.63,3.4c-.088,1.929-.107,2.508-.107,7.394s.019,5.464.107,7.394a10.123,10.123,0,0,0,.63,3.4,6.059,6.059,0,0,0,3.472,3.472,10.111,10.111,0,0,0,3.4.63c1.929.088,2.507.106,7.393.106s5.465-.018,7.394-.106a10.111,10.111,0,0,0,3.4-.63,6.059,6.059,0,0,0,3.472-3.472,10.132,10.132,0,0,0,.63-3.4c.088-1.93.106-2.508.106-7.394s-.018-5.464-.106-7.394A10.111,10.111,0,0,0,164.748,139.7Zm-14.263,20.186a9.4,9.4,0,1,1,9.4-9.4A9.4,9.4,0,0,1,150.485,159.883Zm9.767-16.966a2.2,2.2,0,1,1,2.2-2.2A2.2,2.2,0,0,1,160.251,142.917Zm0,0" transform="translate(-243.998 -244.002)" fill="#6a6a6a"/>
    <path id="Path_8" data-name="Path 8" d="M1.494,0A1.494,1.494,0,1,0,2.987,1.494,1.494,1.494,0,0,0,1.494,0Zm.852,1.847a.629.629,0,0,1-.04.208.439.439,0,0,1-.251.251.63.63,0,0,1-.208.04c-.091,0-.121.005-.354.005s-.262,0-.354-.005a.63.63,0,0,1-.208-.04.439.439,0,0,1-.251-.251.629.629,0,0,1-.04-.208c0-.091-.005-.121-.005-.354s0-.262.005-.354A.629.629,0,0,1,.681.932.439.439,0,0,1,.932.681.63.63,0,0,1,1.14.641c.091,0,.121-.005.354-.005s.262,0,.354.005a.63.63,0,0,1,.208.04.439.439,0,0,1,.251.251.629.629,0,0,1,.04.208c0,.091.005.121.005.354S2.35,1.756,2.346,1.847Zm0,0" transform="translate(-95.007 -95.007)" fill="#6a6a6a"/>
  </g>
</svg>
