<svg id="twitter_1_" data-name="twitter (1)" xmlns="http://www.w3.org/2000/svg" width="30" height="30" viewBox="0 0 30 30">
  <g id="Group_6" data-name="Group 6">
    <path id="Path_9" data-name="Path 9" d="M15,0A15,15,0,1,0,30,15,15,15,0,0,0,15,0Zm7.462,11.632.011.478A10.5,10.5,0,0,1,6.306,20.959a7.6,7.6,0,0,0,.881.052,7.411,7.411,0,0,0,4.586-1.581,3.7,3.7,0,0,1-3.45-2.565A3.8,3.8,0,0,0,9.992,16.8a3.7,3.7,0,0,1-2.962-3.621v-.047A3.688,3.688,0,0,0,8.7,13.6,3.7,3.7,0,0,1,7.558,8.668a10.481,10.481,0,0,0,7.613,3.859,3.7,3.7,0,0,1,6.294-3.368,7.479,7.479,0,0,0,2.346-.9,3.7,3.7,0,0,1-1.624,2.044,7.4,7.4,0,0,0,2.121-.581A7.465,7.465,0,0,1,22.462,11.632Z" fill="#6a6a6a"/>
  </g>
</svg>
