<svg id="youtube-symbol" xmlns="http://www.w3.org/2000/svg" width="30.02" height="30.02" viewBox="0 0 30.02 30.02">
  <g id="Group_7" data-name="Group 7">
    <path id="Path_10" data-name="Path 10" d="M39.969,44.24l7.187-3.726-7.187-3.75Z" transform="translate(-27.931 -25.702)" fill="#6a6a6a"/>
    <path id="Path_11" data-name="Path 11" d="M15.01,0A15.01,15.01,0,1,0,30.02,15.01,15.01,15.01,0,0,0,15.01,0ZM25.237,20.02A2.678,2.678,0,0,1,22.946,22.1a71.08,71.08,0,0,1-7.936.294A71.107,71.107,0,0,1,7.072,22.1a2.676,2.676,0,0,1-2.29-2.082,22.69,22.69,0,0,1-.369-5.01A22.689,22.689,0,0,1,4.786,10a2.677,2.677,0,0,1,2.29-2.083,71.181,71.181,0,0,1,7.938-.294,71.151,71.151,0,0,1,7.936.294A2.677,2.677,0,0,1,25.241,10a22.687,22.687,0,0,1,.366,5.01A22.689,22.689,0,0,1,25.237,20.02Z" fill="#6a6a6a"/>
  </g>
</svg>
